<svg width="16" height="16" viewBox="0 0 16 16" fill="none" xmlns="http://www.w3.org/2000/svg">
<circle cx="8" cy="8" r="7" stroke="var(--grey-color)" stroke-width="1.2"/>
<path d="M7.36341 9.70901V9.66384C7.36843 9.18451 7.41862 8.80306 7.51398 8.51948C7.60935 8.2359 7.74486 8.00627 7.92053 7.83061C8.0962 7.65494 8.307 7.49307 8.55294 7.345C8.701 7.25466 8.83401 7.148 8.95196 7.02504C9.06991 6.89956 9.16276 6.75526 9.23052 6.59214C9.30079 6.42902 9.33592 6.24833 9.33592 6.05007C9.33592 5.80413 9.2782 5.59082 9.16276 5.41013C9.04732 5.22945 8.89299 5.09016 8.69975 4.99229C8.50651 4.89442 8.29195 4.84548 8.05605 4.84548C7.85026 4.84548 7.65201 4.88815 7.46128 4.97347C7.27055 5.0588 7.1112 5.19306 6.98321 5.37626C6.85522 5.55945 6.78119 5.79912 6.76111 6.09524H5.8125C5.83258 5.66862 5.943 5.30348 6.14376 4.99982C6.34704 4.69616 6.6143 4.46403 6.94557 4.30342C7.27934 4.14281 7.6495 4.0625 8.05605 4.0625C8.49773 4.0625 8.88169 4.15033 9.20794 4.326C9.53669 4.50167 9.79015 4.74259 9.96833 5.04876C10.149 5.35492 10.2394 5.70375 10.2394 6.09524C10.2394 6.3713 10.1967 6.621 10.1114 6.84435C10.0286 7.0677 9.9081 7.26721 9.75 7.44288C9.59441 7.61855 9.40619 7.77414 9.18535 7.90966C8.96451 8.04768 8.78758 8.19324 8.65458 8.34632C8.52157 8.49689 8.42495 8.67633 8.36472 8.88462C8.30449 9.09291 8.27187 9.35265 8.26685 9.66384V9.70901H7.36341ZM7.84524 11.9375C7.65954 11.9375 7.50018 11.871 7.36717 11.738C7.23417 11.605 7.16766 11.4456 7.16766 11.2599C7.16766 11.0742 7.23417 10.9149 7.36717 10.7818C7.50018 10.6488 7.65954 10.5823 7.84524 10.5823C8.03095 10.5823 8.19031 10.6488 8.32332 10.7818C8.45632 10.9149 8.52283 11.0742 8.52283 11.2599C8.52283 11.3829 8.49146 11.4958 8.42872 11.5987C8.36849 11.7016 8.28693 11.7844 8.18403 11.8472C8.08365 11.9074 7.97072 11.9375 7.84524 11.9375Z" fill="var(--grey-color)"/>
</svg>
